<?xml version="1.0" standalone="no"?>
<!DOCTYPE svg PUBLIC "-//W3C//DTD SVG 1.1//EN" "http://www.w3.org/Graphics/SVG/1.1/DTD/svg11.dtd" >
<svg xmlns="http://www.w3.org/2000/svg" xmlns:xlink="http://www.w3.org/1999/xlink" version="1.1">
<metadata></metadata>
<defs>
<font id="esphimereitalic" horiz-adv-x="1316" >
<font-face units-per-em="2048" ascent="1638" descent="-410" />
<missing-glyph horiz-adv-x="464" />
<glyph unicode="&#xfb03;" horiz-adv-x="1966" d="M-37 -311l21 155q207 0 229 164l123 946h-148l21 150h147l19 133q41 324 416 324l178 -23l-19 -141l-172 6q-203 0 -225 -172l-16 -127h614l18 133q41 324 416 324l178 -23l-18 -141l-172 6q-203 0 -225 -172l-17 -127h666l-144 -1096h-178l123 946h-487l-123 -946 q-43 -319 -430 -319l20 155q207 0 230 164l122 946h-614l-123 -946q-43 -319 -430 -319zM1855 1382l23 179h178l-22 -179h-179z" />
<glyph unicode="&#xfb04;" horiz-adv-x="2093" d="M-37 -311l21 155q207 0 229 164l123 946h-148l21 150h147l19 133q41 324 416 324l178 -23l-19 -141l-172 6q-203 0 -225 -172l-16 -127h614l18 133q41 324 416 324h21l227 -25l182 -16l-155 -1182q-20 -154 92 -154l162 6l-21 -161l-166 -23q-291 0 -246 336l136 1030 l-215 31h-29q-203 0 -225 -172l-17 -127h303l-20 -150h-303l-123 -946q-43 -319 -430 -319l20 155q207 0 230 164l122 946h-614l-123 -946q-43 -319 -430 -319z" />
<glyph unicode="&#xd;" horiz-adv-x="1091" />
<glyph horiz-adv-x="0" />
<glyph horiz-adv-x="0" />
<glyph unicode=" "  horiz-adv-x="464" />
<glyph unicode="&#x09;" horiz-adv-x="464" />
<glyph unicode="&#xa0;" horiz-adv-x="464" />
<glyph unicode="!" horiz-adv-x="526" d="M182 8l25 193h199l-25 -193h-199zM250 440l131 1084h199l-156 -1084h-174z" />
<glyph unicode="&#x22;" horiz-adv-x="776" d="M279 1329l32 246h189l-33 -246l-80 -287h-102zM657 1329l33 246h187l-33 -246l-80 -287h-100z" />
<glyph unicode="#" horiz-adv-x="1470" d="M123 434l22 154h281l78 370h-266l18 152h281l73 342l176 2l-73 -344h383l73 342l179 2l-76 -344h252l-19 -152h-264l-80 -370h250l-20 -154h-265l-84 -387h-172l80 387h-381l-82 -387h-182l84 387h-266zM604 608h383l78 371h-383z" />
<glyph unicode="$" horiz-adv-x="1245" d="M160 23l22 161l400 -4l65 512l-84 29q-305 94 -291 328l23 157q37 285 461 310l14 104h152l-15 -107l357 -16l-21 -162l-358 4l-66 -501l41 -13q356 -92 324 -356l-17 -127q-41 -322 -458 -338l-15 -110h-151l14 112zM455 1049q-4 -109 207 -164l12 -4l59 456 q-242 -16 -256 -131zM733 182q223 18 248 160l16 127q15 113 -204 174z" />
<glyph unicode="%" horiz-adv-x="1732" d="M246 1083l12 103q43 328 367 327q326 0 282 -327l-12 -103q-41 -307 -367 -307q-324 0 -282 307zM256 2l1225 1516h172l-1225 -1516h-172zM387 1079q-20 -166 154 -166q190 0 211 166l14 103q25 195 -166 194q-174 0 -199 -194zM1022 305l12 103q43 328 367 327 q326 0 282 -327l-12 -103q-41 -307 -366 -307q-324 0 -283 307zM1163 301q-20 -166 154 -166q190 0 211 166l14 102q25 195 -166 195q-174 0 -198 -195z" />
<glyph unicode="&#x26;" horiz-adv-x="1406" d="M201 354q20 346 278 406v8q-203 55 -135 401q37 172 129 258q96 94 432 93l201 -33l-23 -168l-202 16q-182 0 -244 -41q-143 -94 -127 -327q33 -119 176 -119h356l29 231h178l-28 -231h225l-25 -172h-225l-49 -381q-10 -125 84 -129l131 6l-19 -141l-165 -23 q-72 0 -123 27q-13 12 -23 26q-158 -45 -325 -57q-377 -2 -447 92q-70 80 -59 258zM422 532q-76 -211 37 -305q74 -39 272 -39q121 -2 236 25q-2 49 4 102l47 361h-352q-176 -6 -244 -144z" />
<glyph unicode="'" horiz-adv-x="405" d="M283 1329l32 246h189l-33 -246l-80 -287h-102z" />
<glyph unicode="(" horiz-adv-x="610" d="M264 713q63 485 338 975h162q-244 -479 -307 -961q-68 -506 55 -997h-176q-137 489 -72 983z" />
<glyph unicode=")" horiz-adv-x="634" d="M51 -270q242 459 307 960q68 506 -55 998h176q137 -489 72 -983q-66 -506 -338 -975h-162z" />
<glyph unicode="*" horiz-adv-x="755" d="M186 1169l52 109l235 -88l35 264h117l-35 -264l258 88l22 -109l-241 -86l116 -213l-102 -69l-129 233l-199 -233l-82 69l185 211z" />
<glyph unicode="+" horiz-adv-x="989" d="M121 655l22 174h357l51 392h176l-51 -392h354l-22 -174h-355l-51 -389h-176l51 389h-356z" />
<glyph unicode="," horiz-adv-x="391" d="M-8 -233l172 432h178l-176 -432h-174z" />
<glyph unicode="-" horiz-adv-x="661" d="M102 489l25 179h541l-25 -179h-541z" />
<glyph unicode="." horiz-adv-x="344" d="M70 8l22 178h178l-22 -178h-178z" />
<glyph unicode="/" horiz-adv-x="778" d="M55 8l717 1530h191l-717 -1530h-191z" />
<glyph unicode="0" horiz-adv-x="1187" d="M195 618l36 289q102 612 539 613h70q415 -1 354 -613l-37 -289q-100 -610 -516 -610h-70q-436 0 -376 610zM381 623q-39 -451 211 -451h70q225 0 305 451l37 278q39 449 -187 449h-69q-250 0 -330 -449z" />
<glyph unicode="1" horiz-adv-x="747" d="M233 1233l23 180l459 105h121l-199 -1510h-186l174 1307z" />
<glyph unicode="2" horiz-adv-x="1187" d="M113 4l18 129q43 211 207 359l481 376q164 123 187 213l6 52q8 121 -109 182q-70 29 -149 35q-211 0 -424 -9l22 170q213 23 422 25q111 0 219 -47q242 -106 217 -356l-6 -52q-35 -152 -278 -344l-461 -362q-100 -98 -127 -193h762l-25 -178h-962z" />
<glyph unicode="3" horiz-adv-x="1210" d="M117 37l22 168l406 -17q199 0 284 39q133 74 115 305q-31 138 -207 144h-344l25 172h348q143 0 203 98q80 254 -39 348q-49 41 -232 41l-368 -16l22 168l371 33q336 2 407 -93q68 -86 60 -258q-23 -346 -242 -401v-8q242 -59 168 -426q-35 -158 -125 -238 q-94 -94 -471 -92z" />
<glyph unicode="4" horiz-adv-x="1249" d="M160 360l14 111q8 51 35 88l737 916q43 45 94 45h131l-131 -994h166l-22 -166h-166l-45 -352h-176l45 352h-682zM401 526h463l90 680h-26l-522 -653z" />
<glyph unicode="5" horiz-adv-x="1187" d="M119 45l22 172l488 -27q291 0 323 252l13 82q33 246 -256 246l-447 -35q-49 0 -47 43l98 740h912l-25 -177h-723l-53 -415l307 16q469 0 414 -418l-12 -82q-57 -440 -527 -440z" />
<glyph unicode="6" horiz-adv-x="1187" d="M178 496l74 559q63 469 496 469q193 -8 380 -43l-20 -162q-190 27 -385 27q-254 0 -293 -291l-22 -172q240 94 387 94q408 0 348 -469l-2 -12q-66 -487 -479 -490h-115q-430 2 -369 490zM356 496q-25 -309 215 -312h115q233 2 277 312l2 12q35 291 -195 291 q-147 -1 -387 -99z" />
<glyph unicode="7" horiz-adv-x="1218" d="M289 1341l24 179h856q137 -1 84 -97l-737 -1415h-199l695 1333h-723z" />
<glyph unicode="8" horiz-adv-x="1187" d="M164 391l14 103q33 247 230 290l2 13q-152 86 -121 319l4 41q49 375 487 375h27q444 0 395 -375l-8 -61q-27 -213 -207 -299l-2 -15q188 -41 156 -288l-15 -103q-51 -391 -520 -391h-26q-467 0 -416 391zM342 389q-25 -211 260 -211h27q289 0 317 213l15 103 q28 217 -261 217h-26q-287 0 -318 -217zM457 1096q-29 -217 237 -217h27q268 0 297 217l8 61q27 199 -242 199h-26q-266 0 -293 -199z" />
<glyph unicode="9" horiz-adv-x="1187" d="M240 49l22 162q201 -25 404 -27q254 0 295 291l22 172q-238 -94 -387 -94q-408 0 -348 469v12q68 487 479 490h115q432 -2 368 -490l-71 -559q-66 -469 -498 -469q-201 10 -401 43zM426 1022q-37 -291 192 -291q150 0 388 98l26 205q25 309 -215 312h-115 q-233 -2 -276 -312v-12z" />
<glyph unicode=":" horiz-adv-x="444" d="M135 8l23 178h178l-23 -178h-178zM242 821l22 180h178l-22 -180h-178z" />
<glyph unicode=";" horiz-adv-x="491" d="M43 -233l172 432h178l-176 -432h-174zM301 834l23 180h178l-23 -180h-178z" />
<glyph unicode="&#x3c;" horiz-adv-x="1015" d="M129 616l29 222l925 354l-22 -188l-760 -277l688 -266l-28 -199z" />
<glyph unicode="=" horiz-adv-x="1120" d="M160 432l22 178h895l-22 -178h-895zM213 842l25 178h895l-25 -178h-895z" />
<glyph unicode="&#x3e;" horiz-adv-x="1052" d="M166 262l24 199l758 266l-686 277l27 188l831 -354l-28 -222z" />
<glyph unicode="?" horiz-adv-x="1069" d="M270 1305l23 174q231 39 457 39q418 -4 372 -344l-8 -70q-25 -193 -266 -313q-182 -78 -207 -254l-16 -127h-185l19 133q31 229 282 370q172 84 187 191l8 70q20 152 -223 151q-219 0 -443 -20zM391 4l25 178h178l-25 -178h-178z" />
<glyph unicode="@" horiz-adv-x="2166" d="M207 651q66 498 307.5 701.5t755.5 203.5q512 0 700.5 -203.5t122.5 -701.5q-98 -487 -541 -487h-28q-248 23 -232 143v4l8 33q-174 -147 -346 -151q-252 18 -219 268q20 156 43 315q66 315 375 336q143 0 256 -158l33 154h164l-136 -735v-2q-4 -31 80 -54q293 0 357 334 q55 424 -84.5 575.5t-575.5 151.5q-438 0 -618 -151.5t-236 -575.5q-55 -422 84 -573.5t578 -151.5h18l-22 -178h-19q-514 0 -702.5 204t-122.5 699zM901 432q-12 -92 70 -92q6 0 12 2q172 0 344 186l45 271q-117 164 -223 164q-8 0 -16 -2q-143 -10 -185 -201 q-27 -168 -47 -328z" />
<glyph unicode="A" d="M23 4l671 1423q43 90 111 91h102q68 0 86 -91l295 -1423h-178l-82 363h-643l-184 -363h-178zM465 545h528l-149 721h-37z" />
<glyph unicode="B" horiz-adv-x="1345" d="M164 8l198 1512h545q408 -2 407 -339q0 -39 -5 -83q-37 -268 -295 -316q250 -42 250 -274q0 -30 -4 -64q-66 -418 -560 -436h-536zM365 186h366q291 0 324 254q4 30 4 57q0 203 -223 203h-404zM455 864h342q283 2 313 228q3 26 3 49q0 200 -253 200h-2h-342z" />
<glyph unicode="C" horiz-adv-x="1183" d="M172 762q100 758 627 758q283 -8 501 -39l-20 -164q-217 25 -498 26q-356 0 -432 -581q-13 -102 -13 -186q0 -394 294 -394q281 4 499 27l-20 -160q-225 -31 -510 -41q-443 0 -443 536q0 100 15 218z" />
<glyph unicode="D" horiz-adv-x="1427" d="M162 0l200 1526h586q446 0 446 -539q0 -102 -16 -223q-100 -764 -630 -764h-586zM371 178h399q340 0 418 584q14 106 14 193q0 388 -277 388h-1h-400z" />
<glyph unicode="E" horiz-adv-x="1212" d="M162 272l127 975q39 270 309 271l735 -17l-22 -162h-738q-92 0 -104 -92l-53 -405h641l-21 -164h-641l-53 -406q-1 -10 -1 -20q0 -70 81 -70h733l-22 -162l-736 -16q-239 0 -239 208q0 28 4 60z" />
<glyph unicode="F" horiz-adv-x="1288" d="M162 4l164 1243q37 270 307 271l735 -17l-22 -162h-738q-92 0 -104 -92l-53 -401h641l-23 -178h-641l-88 -664h-178z" />
<glyph unicode="G" horiz-adv-x="1306" d="M158 659l22 172q131 686 664 687l475 -17l-21 -147h-483q-354 0 -461 -523l-22 -172q-8 -63 -8 -118q0 -347 323 -375h369l67 518h-307l21 150h477l-111 -830h-538q-479 0 -479 491q0 76 12 164z" />
<glyph unicode="H" horiz-adv-x="1361" d="M164 8l198 1510h179l-88 -664h665l88 664h178l-200 -1514h-178l88 672h-668l-84 -668h-178z" />
<glyph unicode="I" horiz-adv-x="518" d="M162 4l200 1514h179l-201 -1514h-178z" />
<glyph unicode="J" horiz-adv-x="825" d="M57 8l23 178h156q240 2 290 248l144 1086h178l-143 -1086q-80 -410 -492 -424z" />
<glyph unicode="K" horiz-adv-x="1333" d="M162 -12l205 1552h186l-94 -706l731 706h233l-639 -618q221 -471 541 -934h-203q-287 401 -475 807l-221 -213l-78 -594h-186z" />
<glyph unicode="L" horiz-adv-x="1128" d="M203 387l149 1133h187l-150 -1133q-8 -57 -8 -97q0 -102 49 -102h674l-23 -180h-673q-213 0 -213 266q0 52 8 113z" />
<glyph unicode="M" horiz-adv-x="1802" d="M164 8l192 1465q6 49 58 49h192q45 0 62 -52l286 -976l23 -2l534 978q27 49 70 50h199q40 0 40 -37q0 -5 -1 -10l-193 -1465h-178l162 1233l-23 2l-510 -917q-35 -66 -78 -66h-118q-47 0 -70 66l-281 915h-26l-162 -1233h-178z" />
<glyph unicode="N" horiz-adv-x="1490" d="M164 8l192 1465q6 49 58 49h192q45 0 62 -52l489 -1282h23l172 1330h178l-197 -1465q-4 -45 -53 -45h-188q-47 0 -70 66l-487 1208h-27l-166 -1274h-178z" />
<glyph unicode="O" horiz-adv-x="1357" d="M158 659l28 207q86 653 584 654h141q425 -1 425 -476q0 -82 -13 -178l-29 -207q-84 -651 -581 -651h-142q-425 0 -425 475q0 81 12 176zM346 664q-12 -86 -11 -158q0 -334 255 -334h151q299 0 365 492l24 196q12 88 12 161q0 328 -245 329h-152q-309 0 -374 -490z" />
<glyph unicode="P" horiz-adv-x="1353" d="M164 8l198 1512h654q366 0 367 -357q0 -54 -9 -116q-61 -475 -483 -476h-475l-74 -563h-178zM438 750h428q279 0 318 299q5 34 5 64q0 228 -259 228h-2h-412z" />
<glyph unicode="Q" horiz-adv-x="1355" d="M158 659l28 207q86 653 584 654h141q425 0 425 -476q0 -82 -13 -178l-29 -207q-37 -285 -151 -448l112 -100l-114 -121l-115 104q-123 -86 -313 -86h-142q-425 0 -425 475q0 81 12 176zM346 664q-12 -86 -12 -158q0 -334 256 -334h151q94 0 156 37l-270 248l110 121 l273 -246q68 123 96 332l24 196q12 88 12 161q0 328 -245 329h-152q-309 0 -374 -490z" />
<glyph unicode="R" horiz-adv-x="1357" d="M162 4l200 1516h654q366 -2 366 -357q0 -54 -8 -116q-72 -440 -413 -461q131 -291 323 -582h-207q-190 284 -317 567h-344l-76 -567h-178zM438 739h439q279 0 317 310q5 37 5 69q0 234 -259 234h-422z" />
<glyph unicode="S" horiz-adv-x="1181" d="M115 23l22 161l486 -4q287 0 313 162l16 127q1 7 1 13q0 104 -210 163l-225 76q-292 90 -292 308q0 10 1 20l23 157q41 311 543 312l426 -21l-21 -162l-428 4q-322 0 -338 -133l-22 -157q-4 -109 206 -164l199 -60q327 -84 327 -314q0 -21 -3 -42l-17 -127 q-43 -340 -510 -340z" />
<glyph unicode="T" horiz-adv-x="1228" d="M231 1341l25 179h1120l-24 -179h-451l-176 -1337h-182l176 1337h-488z" />
<glyph unicode="U" horiz-adv-x="1388" d="M221 526l131 994h183l-132 -994q-5 -41 -6 -77q0 -263 289 -263h41q340 0 385 340l131 994h180l-131 -994q-68 -516 -587 -516h-41q-451 0 -451 403q0 53 8 113z" />
<glyph unicode="V" horiz-adv-x="1329" d="M254 1518h192q55 -651 234 -1303h20q356 651 590 1303h199q-272 -723 -668 -1448q-31 -66 -94 -66h-123q-68 0 -80 66q-197 725 -270 1448z" />
<glyph unicode="W" horiz-adv-x="1984" d="M262 1518h193v-64q0 -619 110 -1239h21q291 629 458 1258q18 45 60 45h172q41 0 45 -45v-40q0 -609 117 -1218h20q295 651 467 1303h199q-211 -723 -545 -1448q-31 -66 -94 -66h-123q-68 0 -80 66q-119 581 -119 1161h-20q-156 -580 -436 -1161q-31 -66 -95 -66h-123 q-68 0 -79 66q-135 725 -148 1448z" />
<glyph unicode="X" horiz-adv-x="1355" d="M51 8l606 756l-407 754h223l318 -611h20l471 611h225l-608 -754l410 -756h-226l-309 610h-20l-480 -610h-223z" />
<glyph unicode="Y" horiz-adv-x="1269" d="M252 1516h211l258 -822h22l490 822h197l-639 -1027l-64 -485h-190l63 485z" />
<glyph unicode="Z" horiz-adv-x="1167" d="M96 8l6 58q8 59 52 118l890 1141l5 16h-783l25 177h1055l-9 -56q-8 -59 -55 -119l-887 -1140v-15h774l-22 -180h-1051z" />
<glyph unicode="[" horiz-adv-x="659" d="M61 -336l256 1938h447l-21 -158h-251l-213 -1622h251l-22 -158h-447z" />
<glyph unicode="\" horiz-adv-x="923" d="M311 1538h193l313 -1530h-188z" />
<glyph unicode="]" horiz-adv-x="659" d="M61 -336l23 158h252l213 1622h-252l20 158h447l-256 -1938h-447z" />
<glyph unicode="^" horiz-adv-x="1118" d="M209 762l418 704q18 33 49 33h160q35 0 47 -33l227 -704l-182 -2l-191 581h-16l-326 -581z" />
<glyph unicode="_" horiz-adv-x="1259" d="M84 -172l18 139h1047l-19 -139h-1046z" />
<glyph unicode="`" horiz-adv-x="704" d="M307 1481h248l199 -256h-191z" />
<glyph unicode="a" horiz-adv-x="1089" d="M125 549q80 553 483 565l301 -20l178 -4l-143 -1086h-151l12 168q-233 -166 -445 -168q-249 0 -249 358q0 83 14 187zM303 539q-13 -102 -14 -176q0 -195 94 -195q207 25 432 197l76 548l-305 21q-223 -18 -283 -395z" />
<glyph unicode="b" horiz-adv-x="1171" d="M156 25l198 1511h178l-63 -481q123 31 238 39h81q355 0 356 -362q0 -56 -9 -120l-17 -123q-63 -485 -473 -485zM356 182l310 -20q233 0 276 327l16 123q7 51 7 94q0 234 -197 234h-82q-115 0 -237 -41z" />
<glyph unicode="c" horiz-adv-x="958" d="M143 547q74 555 492 555l389 -23l-18 -153l-388 6q-246 0 -296 -385q-9 -67 -9 -122q0 -265 203 -265l389 6l-20 -150l-396 -22q-357 0 -357 402q0 70 11 151z" />
<glyph unicode="d" horiz-adv-x="1120" d="M215 489l16 123q63 481 474 482h81q115 -8 230 -39l63 481h178l-198 -1511l-498 -21q-355 0 -355 363q0 57 9 122zM391 489q-7 -51 -7 -94q0 -233 197 -233h1l317 20l96 717q-115 41 -229 41h-82q-233 0 -276 -328z" />
<glyph unicode="e" horiz-adv-x="1054" d="M147 547q74 551 431 551h178q297 0 297 -327q0 -45 -6 -97q-39 -219 -191 -219h-553v-20q0 -279 272 -279q109 0 343 20l2 -145q-152 -33 -371 -33q-411 0 -411 415q0 62 9 134zM322 612h454q86 0 98 82q4 32 4 59q0 185 -169 187h-144q-174 -2 -243 -328z" />
<glyph unicode="f" horiz-adv-x="761" d="M-37 -311l21 155q207 0 227 156l125 954h-148l21 150h147l19 133q41 324 416 324l178 -23l-19 -141l-172 6q-203 0 -225 -172l-16 -127h303l-21 -150h-303l-125 -954q-41 -311 -428 -311z" />
<glyph unicode="g" horiz-adv-x="1153" d="M129 -401l51 163q158 -20 254 -20q137 0 232 22q127 33 143 160l18 135l-303 -49h-41q-356 0 -356 272q0 29 4 62l49 371q54 403 449 403h53q180 -2 457 -49l-156 -1159q-27 -199 -180 -272q-127 -59 -357 -60q-117 0 -317 21zM317 344q-2 -14 -2 -27q0 -133 186 -133h5 h41l303 47l88 664q-129 39 -276 47h-56q-209 0 -239 -223z" />
<glyph unicode="h" horiz-adv-x="1193" d="M154 8l202 1553h179l-68 -514q170 53 369 57q319 -4 318 -262q0 -28 -3 -60l-100 -774h-179l82 637q7 55 7 99q0 188 -134 188q-203 0 -383 -66l-112 -858h-178z" />
<glyph unicode="i" horiz-adv-x="475" d="M154 8l143 1096h178l-143 -1096h-178zM334 1382l22 179h179l-23 -179h-178z" />
<glyph unicode="j" horiz-adv-x="595" d="M-4 -434l22 172q184 0 213 203l156 1183h178l-155 -1183q-47 -360 -414 -375zM424 1405l25 178h178l-25 -178h-178z" />
<glyph unicode="k" horiz-adv-x="1009" d="M156 8l204 1553h183l-119 -897l469 440h233l-421 -399q70 -352 360 -697h-193q-262 291 -301 588l-182 -164l-55 -424h-178z" />
<glyph unicode="l" horiz-adv-x="602" d="M190 344l160 1217h178l-159 -1221q-4 -29 -4 -54q0 -120 94 -120l162 6l-19 -141l-164 -23q-254 0 -254 255q0 38 6 81z" />
<glyph unicode="m" horiz-adv-x="1738" d="M131 4l145 1100h162l2 -123q139 123 228 123h123q176 0 243 -172q143 152 277 172h102q274 0 275 -340q0 -66 -11 -146l-82 -614h-176l82 614q10 73 10 129q0 199 -118 199h-103q-90 -4 -229 -137q3 -31 2 -64q0 -59 -8 -127l-82 -614h-176l82 614q9 72 9 129 q0 199 -118 199h-123q-90 -4 -229 -121l-109 -821h-178z" />
<glyph unicode="n" horiz-adv-x="1130" d="M131 4l145 1100h162l2 -121q139 121 228 121h143q295 0 295 -348q0 -63 -10 -138l-82 -614h-176l82 614q9 66 9 118q0 210 -138 210h-144q-90 -4 -229 -121l-109 -821h-178z" />
<glyph unicode="o" horiz-adv-x="1124" d="M135 489l17 123q66 485 469 486h122q353 -1 353 -361q0 -58 -9 -125l-16 -123q-61 -481 -471 -481h-123q-350 0 -350 363q0 55 8 118zM305 489q-7 -51 -7 -94q0 -233 197 -233h1h122q233 0 277 327l16 123q7 51 7 94q0 234 -197 234h-123q-233 0 -276 -328z" />
<glyph unicode="p" horiz-adv-x="1150" d="M74 -428l202 1532h162l2 -121q160 121 248 121h82q355 0 355 -364q0 -56 -9 -122l-16 -122q-63 -481 -473 -482h-82q-115 8 -230 39l-63 -481h-178zM336 209q115 -41 229 -41h82q233 0 277 328l16 122q7 51 7 94q0 234 -197 234h-82q-90 -4 -250 -121z" />
<glyph unicode="q" horiz-adv-x="1126" d="M217 496l16 122q63 485 474 486l491 -21l-201 -1511h-178l64 481q-123 -31 -238 -39h-82q-355 0 -355 361q0 56 9 121zM393 496q-7 -51 -7 -94q0 -234 198 -234h82q115 0 237 41l94 717l-311 20q-233 0 -276 -328z" />
<glyph unicode="r" horiz-adv-x="794" d="M131 4l145 1100h162l2 -121q139 121 228 121q111 0 219 -23l-21 -141q-109 6 -219 6q-90 -4 -229 -121l-109 -821h-178z" />
<glyph unicode="s" horiz-adv-x="1017" d="M84 20l20 156l476 -4q176 0 186 80l14 106v8q0 67 -127 89l-276 51q-214 56 -214 226q0 9 1 18l18 120q31 233 393 234l435 -14l-21 -154l-436 2q-195 0 -203 -68l-16 -116q2 -72 125 -92l252 -48q241 -43 241 -219q0 -18 -2 -37l-14 -106q-33 -246 -371 -246z" />
<glyph unicode="t" horiz-adv-x="768" d="M162 954l20 150h164l35 262h178l-35 -262h307l-20 -150h-307l-86 -659q-1 -12 -1 -23q0 -102 85 -106l213 6l-19 -141l-247 -23q-212 0 -212 229q0 36 5 78l84 639h-164z" />
<glyph unicode="u" horiz-adv-x="1136" d="M172 489l82 615h176l-82 -615q-6 -47 -6 -88q0 -239 215 -239h2q166 2 281 39l118 903h179l-140 -1059q-289 -37 -458 -41q-375 0 -375 369q0 54 8 116z" />
<glyph unicode="v" horiz-adv-x="1030" d="M166 1104h182q25 -440 158 -889h45q256 446 397 889h189q-166 -506 -455 -1014q-39 -82 -121 -82h-115q-82 0 -98 84q-152 508 -182 1012z" />
<glyph unicode="w" horiz-adv-x="1630" d="M199 1104h176q2 -459 86 -920h22q199 442 316 885q12 35 47 35h194q35 0 41 -35q16 -446 115 -893h23q193 465 303 928h161q-125 -528 -333 -1059q-14 -41 -50 -41h-217q-35 0 -43 41q-94 428 -104 856h-23q-115 -428 -311 -856q-16 -41 -51 -41h-225q-35 0 -37 41 q-86 530 -90 1059z" />
<glyph unicode="x" horiz-adv-x="1038" d="M45 8q186 274 457 549q-199 274 -314 547h197q78 -211 238 -422h20q182 211 326 422h196q-197 -272 -432 -547q164 -274 289 -549h-197q-88 211 -215 420h-20q-215 -209 -348 -420h-197z" />
<glyph unicode="y" horiz-adv-x="1144" d="M193 -395l16 131q221 20 330 264h-21q-20 0 -35 51q-197 526 -272 1053h195q39 -446 200 -893q2 -23 12 -23h11l434 916h188l-522 -1104q-182 -391 -536 -395z" />
<glyph unicode="z" horiz-adv-x="960" d="M74 8l6 47q6 47 43 95l614 774h-542l24 180h811l-6 -47q-6 -49 -49 -103l-613 -768h547l-22 -178h-813z" />
<glyph unicode="{" horiz-adv-x="860" d="M190 631l7 57q55 8 102 44t81 79t52.5 99.5t28.5 129.5q20 154 44.5 267.5t74 191.5t137.5 116t233 38h21l-19 -152q-76 0 -127 -18.5t-82.5 -59.5t-47 -105.5t-27.5 -154.5l-2 -12q-16 -119 -36 -199t-85.5 -169t-134.5 -121q59 -35 87.5 -69t43 -88t13.5 -134t-17 -199 l-2 -16q-12 -88 -13.5 -152.5t20 -103.5t67.5 -58.5t122 -19.5l-20 -154q-121 0 -201 25.5t-122 77t-53 134t3 195.5q16 125 24.5 212t-5 149.5t-53.5 107.5t-114 62z" />
<glyph unicode="|" horiz-adv-x="405" d="M61 -338l267 2017q14 2 41.5 4.5t54.5 2.5t53.5 -2.5t42.5 -4.5l-266 -2017q-16 -2 -42 -4t-54 -2q-27 0 -54.5 2t-42.5 4z" />
<glyph unicode="}" horiz-adv-x="860" d="M63 -332l21 154q76 0 126 19.5t82 58.5t48 103.5t29 152.5l2 16q16 119 34.5 199t47 134t66.5 88t108 69q-59 33 -89 67.5t-44.5 87.5t-12.5 134t19 200l2 12q12 90 12 154.5t-21.5 105.5t-66.5 59.5t-121 18.5l19 152h22q143 0 221 -38t108 -116t24.5 -191.5 t-25.5 -267.5q-10 -74 -5 -130t25.5 -99t59.5 -79t90 -44l-6 -57q-82 -16 -132.5 -61.5t-80 -108t-46 -149.5t-32.5 -212q-15 -112 -46.5 -195t-88 -134.5t-142.5 -77t-207 -25.5z" />
<glyph unicode="~" horiz-adv-x="1259" d="M174 508q47 360 352 360q188 -4 265 -133q39 -80 143 -80q135 0 160 191h170q-47 -369 -353 -369q-199 16 -266 131q-45 80 -143 82q-129 0 -152 -182h-176z" />
<glyph unicode="&#xa1;" horiz-adv-x="411" d="M47 -453l156 1084h174l-131 -1084h-199zM227 913l25 191h199l-25 -191h-199z" />
<glyph unicode="&#xa2;" horiz-adv-x="1099" d="M164 547q72 549 502 555l14 117h151l-16 -125l229 -15l-18 -153l-231 4l-103 -768l234 4l-21 -150l-233 -14l-15 -108h-151l14 100q-428 6 -356 553zM342 547q-49 -375 199 -387l102 772q-252 -12 -301 -385z" />
<glyph unicode="&#xa3;" horiz-adv-x="1118" d="M117 16l22 172q190 121 230 279l32 246h-186l18 135h187l26 211q59 453 457 452h279l-21 -151h-266q-221 0 -260 -301l-27 -211h373l-18 -135h-373l-33 -250q-29 -170 -186 -287h655l-20 -160h-889z" />
<glyph unicode="&#xa4;" horiz-adv-x="880" d="M156 354l106 97q-12 20 -18 71q-8 35 -4 70q4 37 24 74q17 49 35 67l-82 94l107 97l86 -93q20 14 69 25q37 12 78 12q35 0 70 -10q45 -12 63 -29l107 95l84 -97l-105 -94q12 -23 21 -69q4 -33 -2 -72q-4 -37 -19 -72q-20 -49 -35 -67l78 -99l-108 -94l-82 94 q-23 -16 -72 -28q-37 -12 -76 -13q-37 0 -69 13q-47 12 -64 28l-110 -94zM371 592q-2 -18 2 -39q3 -39 28 -64q20 -31 60 -40q20 -4 39 -5q18 0 41 5q39 10 69 40q31 25 47 62q8 23 11 41q2 18 2 39q-8 39 -31 63q-25 31 -61 41q-20 4 -39 4q-20 0 -41 -4q-39 -10 -68 -41 q-33 -25 -47 -59q-10 -25 -12 -43z" />
<glyph unicode="&#xa5;" horiz-adv-x="1329" d="M211 281l18 135h398l14 114l-25 74h-362l16 133h305l-262 819h211l244 -827l461 827h196l-475 -819h314l-17 -133h-373l-45 -74l-14 -114h408l-19 -135h-407l-37 -277h-189l37 277h-397z" />
<glyph unicode="&#xa6;" horiz-adv-x="405" d="M61 -336l93 698h192l-92 -698h-193zM236 979l92 698h192l-92 -698h-192z" />
<glyph unicode="&#xa7;" horiz-adv-x="1050" d="M150 27l20 153l432 -2q197 0 207 68l14 116q0 72 -125 93l-256 41q-262 51 -233 262l27 209l167 -19l-24 -190q-10 -74 127 -96l276 -52q223 -59 211 -243l-16 -121q-31 -233 -393 -234zM264 1194l19 121q31 233 393 233l434 -14l-20 -154l-437 2q-195 0 -202 -67 l-17 -117q0 -72 125 -92l256 -41q262 -51 236 -262l-29 -209l-168 18l27 191q6 74 -127 96l-279 51q-223 59 -211 244z" />
<glyph unicode="&#xa8;" horiz-adv-x="854" d="M270 1245l27 199h203l-27 -199h-203zM709 1245l26 199h203l-27 -199h-202z" />
<glyph unicode="&#xa9;" horiz-adv-x="1806" d="M221 774q20 164 98 309.5t193 249t267.5 165t326.5 61.5q176 0 312 -60.5t224.5 -165t128 -248t17.5 -311.5q-23 -168 -100.5 -312.5t-192.5 -247.5t-267.5 -164.5t-328.5 -61.5q-174 0 -310 61.5t-224.5 164.5t-127 247.5t-16.5 312.5zM348 774q-18 -143 10.5 -265 t101 -215t186 -144.5t267.5 -51.5q156 0 284 51.5t225.5 144.5t157.5 215t79 265q18 141 -9.5 263t-101 215.5t-187.5 144.5t-269 51q-154 0 -282 -51t-224.5 -144.5t-157.5 -215.5t-80 -263zM676 770q57 440 403 440q184 0 262 -131l-90 -88q-84 94 -182 94 q-229 0 -270 -315q-43 -317 186 -317q98 0 203 88l69 -90q-117 -119 -294 -119q-346 0 -287 438z" />
<glyph unicode="&#xaa;" horiz-adv-x="804" d="M227 834q31 215 228 223h233l8 65q12 86 -80 101q-49 4 -86 4h-184l14 108q111 15 211 15q293 -12 260 -265l-65 -487h-123l4 78q-147 -76 -237 -78q-215 0 -183 236zM365 827q-14 -115 61 -114q80 4 227 86l19 131h-230q-59 -10 -77 -103z" />
<glyph unicode="&#xab;" horiz-adv-x="1318" d="M184 569l410 467h209l-408 -465l283 -471h-205zM727 569l410 467h209l-408 -465l283 -471h-205z" />
<glyph unicode="&#xac;" horiz-adv-x="1093" d="M188 629l25 182h881l-76 -584h-182l51 402h-699z" />
<glyph unicode="&#xad;" horiz-adv-x="661" d="M102 489l25 179h541l-25 -179h-541z" />
<glyph unicode="&#xae;" horiz-adv-x="1792" d="M215 774q20 164 98 309.5t193 249t267.5 165t326.5 61.5q176 0 312 -60.5t224 -165t128 -248t18 -311.5q-23 -168 -100.5 -312.5t-192.5 -247.5t-267.5 -164.5t-328.5 -61.5q-174 0 -310.5 61.5t-224.5 164.5t-126.5 247.5t-16.5 312.5zM342 774q-18 -143 10.5 -265 t101 -215t186 -144.5t267.5 -51.5q156 0 284 51.5t225 144.5t157.5 215t79.5 265q18 141 -9.5 263t-101.5 215.5t-187.5 144.5t-269.5 51q-154 0 -281.5 -51t-224 -144.5t-158 -215.5t-79.5 -263zM670 346l112 848h283q311 -2 278 -252q-29 -207 -215 -244l136 -352h-144 l-110 342h-176l-46 -342h-118zM850 809h160q190 0 209 133q16 133 -183 133h-151z" />
<glyph unicode="&#xaf;" horiz-adv-x="776" d="M274 1278l19 143h563l-18 -143h-564z" />
<glyph unicode="&#xb0;" horiz-adv-x="825" d="M264 1202q8 66 41 121t79 95t105.5 64.5t120.5 24.5q63 0 116.5 -24.5t89.5 -64.5t52.5 -95t8.5 -121q-8 -61 -40 -117.5t-78 -96.5t-105.5 -64.5t-123.5 -24.5q-61 0 -114.5 24.5t-89 64.5t-53 96.5t-9.5 117.5zM401 1202q-10 -78 32 -127t114 -49q74 0 129 49t65 127 t-31.5 128t-115.5 50q-72 0 -127.5 -50t-65.5 -128z" />
<glyph unicode="&#xb1;" horiz-adv-x="1107" d="M109 10l22 178h895l-22 -178h-895zM199 668l22 176h357l51 391h176l-51 -391h354l-23 -176h-354l-51 -389h-176l51 389h-356z" />
<glyph unicode="&#xb2;" horiz-adv-x="806" d="M190 637l13 92q27 131 127 221l280 219q88 66 99 111l4 29q4 59 -54 90q-37 14 -81 18q-121 0 -261 -6l17 133q139 14 262 17q68 0 133 -29q150 -66 135 -223l-4 -31q-20 -96 -168 -211l-266 -211q-53 -51 -61 -80h438l-19 -139h-594z" />
<glyph unicode="&#xb3;" horiz-adv-x="829" d="M193 651l18 135l256 -10q113 0 158 21q68 37 55 157q-15 70 -105 72h-221l19 137h223q74 0 100 45q43 137 -18 185q-25 20 -125 20l-238 -10l19 135l235 21q207 2 252 -60q45 -55 41 -164q-14 -217 -141 -237q143 -25 96 -256q-20 -100 -80 -150q-59 -61 -291 -61z" />
<glyph unicode="&#xb4;" horiz-adv-x="702" d="M274 1225l265 256h245l-319 -256h-191z" />
<glyph unicode="&#xb5;" horiz-adv-x="1157" d="M43 -475l211 1593h195l-76 -567q-25 -193 28.5 -287t194.5 -94q55 0 108.5 18.5t98.5 57.5t75.5 98t41.5 141l84 633h194l-143 -1085h-178l20 153q-78 -90 -160 -135t-198 -45q-141 0 -224 111l-79 -592h-193z" />
<glyph unicode="&#xb6;" horiz-adv-x="1183" d="M250 1092q16 125 66.5 213t138.5 142t213 81q115 20 268 22h346l-203 -1542h-143l180 1370h-180l-180 -1370h-142l88 674h-34q-100 0 -182.5 23.5t-139.5 72.5t-83.5 128t-12.5 186z" />
<glyph unicode="&#xb7;" horiz-adv-x="430" d="M168 461l29 217h217l-29 -217h-217z" />
<glyph unicode="&#xb8;" horiz-adv-x="671" d="M45 -465q6 25 15.5 57.5t25.5 51.5q57 -18 127 -19q70 0 116 22.5t52 71.5q6 47 -34 65.5t-103 18.5q-31 0 -62.5 -4t-58.5 -12l-4 8l135 273h121l-92 -181q33 8 61 9q98 0 146.5 -49.5t37.5 -127.5q-14 -102 -103 -153t-226 -51q-31 0 -75 3t-79 17z" />
<glyph unicode="&#xb9;" horiz-adv-x="557" d="M289 1384l18 134l234 41h114l-120 -928h-142l103 790z" />
<glyph unicode="&#xba;" horiz-adv-x="837" d="M242 1022l22 178q63 391 348 391h43q273 0 234 -391l-23 -178q-63 -389 -336 -389h-43q-285 0 -245 389zM393 1026q-20 -256 113 -256h43q119 0 164 256l22 168q20 256 -98 256h-43q-133 0 -178 -256z" />
<glyph unicode="&#xbb;" horiz-adv-x="1318" d="M123 100l409 471l-284 465h209l286 -467l-413 -469h-207zM666 100l409 471l-284 465h208l287 -467l-414 -469h-206z" />
<glyph unicode="&#xbc;" horiz-adv-x="1665" d="M260 2l1225 1516h151l-1224 -1516h-152zM262 1343l19 134l235 41h115l-123 -928h-141l104 790zM958 203l11 84q6 37 26 63l441 545q31 35 71 35h97l-78 -592h98l-18 -135h-99l-26 -209h-142l27 209h-408zM1145 338h239l48 369z" />
<glyph unicode="&#xbd;" horiz-adv-x="1847" d="M260 2l1225 1516h151l-1224 -1516h-152zM262 1343l19 134l235 41h115l-123 -928h-141l104 790zM1169 8l11 92q29 131 129 222l280 219q88 66 99 110l4 29q4 59 -54 90q-39 14 -82 18q-121 0 -262 -6l19 133q139 14 262 17q68 0 133 -29q150 -66 135 -223l-4 -31 q-20 -96 -170 -211l-264 -211q-55 -51 -64 -80h439l-17 -139h-594z" />
<glyph unicode="&#xbe;" horiz-adv-x="1769" d="M166 610l18 135l256 -10q113 0 160 21q66 37 55 157q-16 70 -106 72h-221l18 137h223q74 0 101 45q45 137 -19 185q-25 20 -125 20l-235 -10l16 135l238 21q207 2 252 -60q43 -55 39 -164q-14 -217 -142 -237q143 -25 97 -256q-20 -100 -78 -150q-61 -61 -293 -61zM365 2 l1224 1516h152l-1225 -1516h-151zM1063 203l10 84q6 37 27 63l440 545q31 35 72 35h96l-78 -592h99l-19 -135h-98l-27 -209h-141l26 209h-407zM1249 338h240l47 369z" />
<glyph unicode="&#xbf;" horiz-adv-x="1083" d="M98 -61l11 69q25 193 266 314q182 78 205 253l16 127h184l-16 -133q-31 -229 -283 -370q-174 -84 -186 -191l-10 -69q-20 -152 223 -152q221 0 444 20l-24 -174q-229 -37 -455 -39q-420 4 -375 345zM629 930l22 178h178l-22 -178h-178z" />
<glyph unicode="&#xc0;" d="M23 4l671 1423q43 90 111 91h102q68 0 86 -91l295 -1423h-178l-82 363h-643l-184 -363h-178zM459 1870h248l199 -256h-191zM465 545h528l-149 721h-37z" />
<glyph unicode="&#xc1;" d="M23 4l671 1423q43 90 111 91h102q68 0 86 -91l295 -1423h-178l-82 363h-643l-184 -363h-178zM465 545h528l-149 721h-37zM714 1614l265 256h245l-319 -256h-191z" />
<glyph unicode="&#xc2;" d="M23 4l671 1423q43 90 111 91h102q68 0 86 -91l295 -1423h-178l-82 363h-643l-184 -363h-178zM452 1614l252 256l244 -2l184 -254h-196l-121 176l-166 -176h-197zM465 545h528l-149 721h-37z" />
<glyph unicode="&#xc3;" d="M23 4l671 1423q43 90 111 91h102q68 0 86 -91l295 -1423h-178l-82 363h-643l-184 -363h-178zM465 545h528l-149 721h-37zM477 1726q33 31 91.5 66t127.5 35q41 0 84 -17.5t83 -37t80 -37t87 -17.5q43 0 78 17.5t74 52.5l47 -113q-35 -31 -92.5 -63.5t-122.5 -32.5 q-45 0 -88 16.5t-83 37t-80 35.5t-83 15q-49 0 -85 -18t-69 -49z" />
<glyph unicode="&#xc4;" d="M23 4l671 1423q43 90 111 91h102q68 0 86 -91l295 -1423h-178l-82 363h-643l-184 -363h-178zM465 545h528l-149 721h-37zM489 1634l27 199h203l-27 -199h-203zM928 1634l26 199h203l-27 -199h-202z" />
<glyph unicode="&#xc5;" d="M23 4l671 1423q10 23 21 39q-12 10 -23 23q-55 61 -43 160q12 100 83 161.5t169 61.5q100 0 154.5 -61.5t42.5 -161.5q-12 -98 -82 -160q-17 -15 -35 -25q8 -16 12 -37l295 -1423h-178l-82 363h-643l-184 -363h-178zM465 545h528l-149 721h-37zM760 1649q-8 -59 16.5 -94 t79.5 -35q57 0 91 34.5t42 94.5q8 61 -17.5 95t-82.5 34q-55 0 -88 -34t-41 -95z" />
<glyph unicode="&#xc6;" horiz-adv-x="1918" d="M-37 8l1102 1553h987l-24 -189h-713l-66 -502h570l-23 -170h-569l-70 -524h709l-21 -168h-903l51 404h-538l-293 -404h-199zM553 586h465l98 751z" />
<glyph unicode="&#xc7;" horiz-adv-x="1191" d="M172 762q100 758 627 758q283 -8 501 -39l-20 -164q-217 25 -498 26q-356 0 -432 -581q-76 -580 281 -580q281 4 499 27l-20 -160q-203 -27 -453 -39l-55 -106q33 8 62 8q98 0 146 -49t38 -127q-14 -102 -103.5 -153.5t-226.5 -51.5q-31 0 -75 3t-78 17q6 25 15 58t26 51 q57 -18 126 -18q70 0 116 22.5t52 71.5q6 47 -33.5 65.5t-103.5 18.5q-31 0 -62.5 -4t-58.5 -13l-4 9l101 198q-461 43 -367 752z" />
<glyph unicode="&#xc8;" horiz-adv-x="1212" d="M162 272l127 975q39 270 309 271l735 -17l-22 -162h-738q-92 0 -104 -92l-53 -405h641l-21 -164h-641l-53 -406q-12 -90 80 -90h733l-22 -162l-736 -16q-272 0 -235 268zM604 1829h248l199 -256h-191z" />
<glyph unicode="&#xc9;" horiz-adv-x="1212" d="M162 272l127 975q39 270 309 271l735 -17l-22 -162h-738q-92 0 -104 -92l-53 -405h641l-21 -164h-641l-53 -406q-12 -90 80 -90h733l-22 -162l-736 -16q-272 0 -235 268zM573 1573l265 256h245l-319 -256h-191z" />
<glyph unicode="&#xca;" horiz-adv-x="1212" d="M162 272l127 975q39 270 309 271l735 -17l-22 -162h-738q-92 0 -104 -92l-53 -405h641l-21 -164h-641l-53 -406q-12 -90 80 -90h733l-22 -162l-736 -16q-272 0 -235 268zM473 1594l252 256l244 -2l184 -254h-196l-121 176l-166 -176h-197z" />
<glyph unicode="&#xcb;" horiz-adv-x="1212" d="M162 272l127 975q39 270 309 271l735 -17l-22 -162h-738q-92 0 -104 -92l-53 -405h641l-21 -164h-641l-53 -406q-12 -90 80 -90h733l-22 -162l-736 -16q-272 0 -235 268zM475 1634l27 199h203l-27 -199h-203zM914 1634l26 199h203l-27 -199h-202z" />
<glyph unicode="&#xcc;" horiz-adv-x="546" d="M162 1891h248l199 -256h-191zM195 4l200 1514h179l-201 -1514h-178z" />
<glyph unicode="&#xcd;" horiz-adv-x="509" d="M182 4l200 1514h179l-201 -1514h-178zM258 1635l265 256h245l-319 -256h-191z" />
<glyph unicode="&#xce;" horiz-adv-x="634" d="M153 1620l252 256l244 -2l184 -254h-196l-121 176l-166 -176h-197zM234 4l200 1514h179l-201 -1514h-178z" />
<glyph unicode="&#xcf;" horiz-adv-x="595" d="M155 1655l27 199h203l-27 -199h-203zM207 4l200 1514h179l-201 -1514h-178zM594 1655l26 199h203l-27 -199h-202z" />
<glyph unicode="&#xd0;" horiz-adv-x="1466" d="M127 688l23 162h163l95 717h383q733 0 628 -783q-102 -784 -823 -784h-395l90 688h-164zM410 178h188q551 0 631 604q80 602 -479 602h-181l-69 -534h280l-22 -162h-281z" />
<glyph unicode="&#xd1;" horiz-adv-x="1495" d="M184 8l192 1465q6 49 58 49h192q45 0 62 -52l489 -1282h23l172 1330h178l-197 -1465q-4 -45 -53 -45h-188q-47 0 -70 66l-487 1208h-27l-166 -1274h-178zM584 1767q33 31 91.5 66t127.5 35q41 0 84 -17.5t83 -37t80 -37t87 -17.5q43 0 78 17.5t74 52.5l47 -113 q-35 -31 -92.5 -63.5t-122.5 -32.5q-45 0 -88 16.5t-83 37t-80 35.5t-83 15q-49 0 -85 -18t-69 -49z" />
<glyph unicode="&#xd2;" horiz-adv-x="1357" d="M158 659l28 207q86 653 584 654h141q498 -1 412 -654l-29 -207q-84 -651 -581 -651h-142q-498 0 -413 651zM346 664q-66 -492 244 -492h151q299 0 365 492l24 196q66 489 -233 490h-152q-309 0 -374 -490zM493 1891h248l199 -256h-191z" />
<glyph unicode="&#xd3;" horiz-adv-x="1357" d="M158 659l28 207q86 653 584 654h141q498 -1 412 -654l-29 -207q-84 -651 -581 -651h-142q-498 0 -413 651zM346 664q-66 -492 244 -492h151q299 0 365 492l24 196q66 489 -233 490h-152q-309 0 -374 -490zM626 1635l265 256h245l-319 -256h-191z" />
<glyph unicode="&#xd4;" horiz-adv-x="1357" d="M158 659l28 207q86 653 584 654h141q498 -1 412 -654l-29 -207q-84 -651 -581 -651h-142q-498 0 -413 651zM346 664q-66 -492 244 -492h151q299 0 365 492l24 196q66 489 -233 490h-152q-309 0 -374 -490zM464 1635l252 256l244 -2l184 -254h-196l-121 176l-166 -176 h-197z" />
<glyph unicode="&#xd5;" horiz-adv-x="1357" d="M158 659l28 207q86 653 584 654h141q498 -1 412 -654l-29 -207q-84 -651 -581 -651h-142q-498 0 -413 651zM346 664q-66 -492 244 -492h151q299 0 365 492l24 196q66 489 -233 490h-152q-309 0 -374 -490zM500 1787q33 31 91.5 66t127.5 35q41 0 84 -17.5t83 -37t80 -37 t87 -17.5q43 0 78 17.5t74 52.5l47 -113q-35 -31 -92.5 -63.5t-122.5 -32.5q-45 0 -88 16.5t-83 37t-80 35.5t-83 15q-49 0 -85 -18t-69 -49z" />
<glyph unicode="&#xd6;" horiz-adv-x="1357" d="M158 659l28 207q86 653 584 654h141q498 -1 412 -654l-29 -207q-84 -651 -581 -651h-142q-498 0 -413 651zM346 664q-66 -492 244 -492h151q299 0 365 492l24 196q66 489 -233 490h-152q-309 0 -374 -490zM487 1655l27 199h203l-27 -199h-203zM926 1655l26 199h203 l-27 -199h-202z" />
<glyph unicode="&#xd7;" horiz-adv-x="1044" d="M162 403l342 304l-262 305l125 108l262 -305l346 305l94 -110l-346 -303l266 -304l-125 -110l-264 303l-342 -303z" />
<glyph unicode="&#xd8;" horiz-adv-x="1376" d="M135 4l113 152q-117 162 -72 503l29 207q86 653 583 654h142q172 0 272 -78l60 78h165l-135 -183q90 -162 49 -471l-28 -207q-84 -651 -582 -651h-141q-147 0 -244 58l-47 -62h-164zM365 664q-29 -213 12 -334l708 954q-61 66 -170 66h-151q-309 0 -375 -490zM457 215 q59 -43 151 -43h152q299 0 364 492l25 196q23 174 0 287z" />
<glyph unicode="&#xd9;" horiz-adv-x="1388" d="M221 526l131 994h183l-132 -994q-45 -340 283 -340h41q340 0 385 340l131 994h180l-131 -994q-68 -516 -587 -516h-41q-510 0 -443 516zM571 1891h248l199 -256h-191z" />
<glyph unicode="&#xda;" horiz-adv-x="1388" d="M221 526l131 994h183l-132 -994q-45 -340 283 -340h41q340 0 385 340l131 994h180l-131 -994q-68 -516 -587 -516h-41q-510 0 -443 516zM684 1635l265 256h245l-319 -256h-191z" />
<glyph unicode="&#xdb;" horiz-adv-x="1388" d="M221 526l131 994h183l-132 -994q-45 -340 283 -340h41q340 0 385 340l131 994h180l-131 -994q-68 -516 -587 -516h-41q-510 0 -443 516zM501 1635l252 256l244 -2l184 -254h-196l-121 176l-166 -176h-197z" />
<glyph unicode="&#xdc;" horiz-adv-x="1388" d="M221 526l131 994h183l-132 -994q-45 -340 283 -340h41q340 0 385 340l131 994h180l-131 -994q-68 -516 -587 -516h-41q-510 0 -443 516zM544 1675l27 199h203l-27 -199h-203zM983 1675l26 199h203l-27 -199h-202z" />
<glyph unicode="&#xdd;" horiz-adv-x="1146" d="M252 1516h211l258 -822h22l490 822h197l-639 -1027l-64 -485h-190l63 485zM600 1635l265 256h245l-319 -256h-191z" />
<glyph unicode="&#xde;" horiz-adv-x="1202" d="M174 0l199 1505h178l-33 -241h156q573 0 510 -494q-66 -489 -639 -489h-156l-37 -281h-178zM410 432h155q387 0 432 340q43 340 -344 340h-155z" />
<glyph unicode="&#xdf;" horiz-adv-x="1193" d="M154 10l145 1112q53 406 455 406h41q369 0 323 -340q-12 -96 -125.5 -226.5t-122.5 -193.5q-10 -80 142.5 -219t138.5 -258q-41 -313 -428 -314h-125l20 164h125q188 0 209 156q12 98 -139 229t-139 228q10 72 122.5 206t125.5 218q25 193 -148 192h-41q-209 0 -241 -252 l-146 -1108h-192z" />
<glyph unicode="&#xe0;" horiz-adv-x="1060" d="M160 549q80 553 483 565l301 -20l178 -4l-143 -1086h-151l12 168q-233 -166 -445 -168q-307 0 -235 545zM338 539q-49 -371 80 -371q207 25 432 197l76 548l-305 21q-223 -18 -283 -395zM350 1481h248l199 -256h-191z" />
<glyph unicode="&#xe1;" horiz-adv-x="1030" d="M127 549q80 553 483 565l301 -20l178 -4l-143 -1086h-151l12 168q-233 -166 -445 -168q-307 0 -235 545zM305 539q-49 -371 80 -371q207 25 432 197l76 548l-305 21q-223 -18 -283 -395zM491 1225l265 256h245l-319 -256h-191z" />
<glyph unicode="&#xe2;" horiz-adv-x="1028" d="M125 549q80 553 483 565l301 -20l178 -4l-143 -1086h-151l12 168q-233 -166 -445 -168q-307 0 -235 545zM266 1225l252 256l244 -2l184 -254h-196l-121 176l-166 -176h-197zM303 539q-49 -371 80 -371q207 25 432 197l76 548l-305 21q-223 -18 -283 -395z" />
<glyph unicode="&#xe3;" horiz-adv-x="1060" d="M160 549q80 553 483 565l301 -20l178 -4l-143 -1086h-151l12 168q-233 -166 -445 -168q-307 0 -235 545zM338 539q-49 -371 80 -371q207 25 432 197l76 548l-305 21q-223 -18 -283 -395zM356 1337q33 31 91.5 66t127.5 35q41 0 84 -17.5t83 -37t80 -37t87 -17.5 q43 0 78 17.5t74 52.5l47 -113q-35 -31 -92.5 -63.5t-122.5 -32.5q-45 0 -88 16.5t-83 37t-80 35.5t-83 15q-49 0 -85 -18t-69 -49z" />
<glyph unicode="&#xe4;" horiz-adv-x="1060" d="M160 549q80 553 483 565l301 -20l178 -4l-143 -1086h-151l12 168q-233 -166 -445 -168q-307 0 -235 545zM323 1245l27 199h203l-27 -199h-203zM338 539q-49 -371 80 -371q207 25 432 197l76 548l-305 21q-223 -18 -283 -395zM762 1245l26 199h203l-27 -199h-202z" />
<glyph unicode="&#xe5;" horiz-adv-x="1028" d="M125 549q80 553 483 565l301 -20l178 -4l-143 -1086h-151l12 168q-233 -166 -445 -168q-307 0 -235 545zM303 539q-49 -371 80 -371q207 25 432 197l76 548l-305 21q-223 -18 -283 -395zM410 1430q12 100 83 161.5t169 61.5q100 0 154.5 -61.5t41.5 -161.5 q-12 -98 -82.5 -160t-171.5 -62q-98 0 -152 62t-42 160zM521 1430q-8 -59 16.5 -94.5t79.5 -35.5q57 0 91 35t42 95q8 61 -17.5 95t-82.5 34q-55 0 -88 -34t-41 -95z" />
<glyph unicode="&#xe6;" horiz-adv-x="1693" d="M98 344q49 328 330 340h367l12 94q18 141 -133 166q-76 4 -131 4h-262l18 135q152 20 301 21q248 -10 334 -139q106 133 283 133h178q338 0 291 -424q-39 -219 -191 -219h-539l-8 -101q37 -199 266 -198q109 0 342 20l3 -145q-152 -33 -371 -33q-240 0 -340 139 q-162 -143 -488 -133q-307 0 -262 340zM274 334q-25 -186 105 -187q127 4 268 34t127 343h-364q-100 -18 -136 -190zM969 612h446q86 0 98 82q29 244 -165 246h-144q-159 -2 -231 -278z" />
<glyph unicode="&#xe7;" horiz-adv-x="960" d="M143 547q74 555 492 555l389 -23l-18 -153l-388 6q-246 0 -296 -385q-51 -387 194 -387l389 6l-20 -150l-340 -18l-58 -111q33 8 62 9q98 0 146 -49.5t38 -127.5q-14 -102 -103 -153t-227 -51q-31 0 -74.5 3t-78.5 17q6 25 15 57.5t26 51.5q57 -18 127 -19q70 0 116 22.5 t52 71.5q6 47 -34 65.5t-103 18.5q-31 0 -63 -4t-58 -12l-4 8l100 203q-346 41 -281 549z" />
<glyph unicode="&#xe8;" horiz-adv-x="1075" d="M167 547q74 551 431 551h178q338 0 291 -424q-39 -219 -191 -219h-553q-10 -299 272 -299q109 0 343 20l2 -145q-152 -33 -371 -33q-473 0 -402 549zM342 612h454q86 0 98 82q29 244 -165 246h-144q-174 -2 -243 -328zM348 1481h248l199 -256h-191z" />
<glyph unicode="&#xe9;" horiz-adv-x="1054" d="M147 547q74 551 431 551h178q338 0 291 -424q-39 -219 -191 -219h-553q-10 -299 272 -299q109 0 343 20l2 -145q-152 -33 -371 -33q-473 0 -402 549zM322 612h454q86 0 98 82q29 244 -165 246h-144q-174 -2 -243 -328zM481 1225l265 256h245l-319 -256h-191z" />
<glyph unicode="&#xea;" horiz-adv-x="1071" d="M163 547q74 551 431 551h178q338 0 291 -424q-39 -219 -191 -219h-553q-10 -299 272 -299q109 0 343 20l2 -145q-152 -33 -371 -33q-473 0 -402 549zM338 612h454q86 0 98 82q29 244 -165 246h-144q-174 -2 -243 -328zM356 1225l252 256l244 -2l184 -254h-196l-121 176 l-166 -176h-197z" />
<glyph unicode="&#xeb;" horiz-adv-x="1071" d="M163 547q74 551 431 551h178q338 0 291 -424q-39 -219 -191 -219h-553q-10 -299 272 -299q109 0 343 20l2 -145q-152 -33 -371 -33q-473 0 -402 549zM338 612h454q86 0 98 82q29 244 -165 246h-144q-174 -2 -243 -328zM379 1245l27 199h203l-27 -199h-203zM818 1245 l26 199h203l-27 -199h-202z" />
<glyph unicode="&#xec;" horiz-adv-x="538" d="M162 1542h248l198 -256h-190zM186 0l146 1106h192l-145 -1106h-193z" />
<glyph unicode="&#xed;" horiz-adv-x="509" d="M135 8l144 1090h174l-144 -1090h-174zM240 1286l264 256h246l-320 -256h-190z" />
<glyph unicode="&#xee;" horiz-adv-x="555" d="M139 1286l252 256l244 -2l184 -254h-196l-121 176l-166 -176h-197zM225 8l144 1090h174l-144 -1090h-174z" />
<glyph unicode="&#xef;" horiz-adv-x="612" d="M180 1307l27 198h203l-27 -198h-203zM242 8l143 1090h176l-143 -1090h-176zM618 1307l27 198h203l-27 -198h-203z" />
<glyph unicode="&#xf0;" horiz-adv-x="1255" d="M131 449l16 122q57 440 467 441h82q176 -8 353 -39q20 170 -25 276l-170 -141l-80 98l176 148q-96 80 -278 80l22 163q270 0 406 -120l127 106l78 -98l-127 -107q82 -152 49 -405l-21 -156q-109 -813 -725 -813q-410 0 -350 445zM307 449q-39 -287 195 -287 q438 0 526 655q-176 41 -352 41h-82q-233 0 -270 -287z" />
<glyph unicode="&#xf1;" horiz-adv-x="1165" d="M139 4l145 1100h162l2 -121q139 121 228 121h143q348 0 285 -486l-82 -614h-176l82 614q43 328 -129 328h-144q-90 -4 -229 -121l-109 -821h-178zM375 1357q33 31 91.5 66t127.5 35q41 0 84 -17.5t83 -37t80 -37t87 -17.5q43 0 78 17.5t74 52.5l47 -113 q-35 -31 -92.5 -63.5t-122.5 -32.5q-45 0 -88 16.5t-83 37t-80 35.5t-83 15q-49 0 -85 -18t-69 -49z" />
<glyph unicode="&#xf2;" horiz-adv-x="1144" d="M155 489l17 123q66 485 469 486h122q410 -1 344 -486l-16 -123q-61 -481 -471 -481h-123q-403 0 -342 481zM325 489q-43 -328 191 -327h122q233 0 277 327l16 123q43 328 -190 328h-123q-233 0 -276 -328zM385 1481h248l199 -256h-191z" />
<glyph unicode="&#xf3;" horiz-adv-x="1124" d="M135 489l17 123q66 485 469 486h122q410 -1 344 -486l-16 -123q-61 -481 -471 -481h-123q-403 0 -342 481zM305 489q-43 -328 191 -327h122q233 0 277 327l16 123q43 328 -190 328h-123q-233 0 -276 -328zM497 1225l265 256h245l-319 -256h-191z" />
<glyph unicode="&#xf4;" horiz-adv-x="1140" d="M151 489l17 123q66 485 469 486h122q410 -1 344 -486l-16 -123q-61 -481 -471 -481h-123q-403 0 -342 481zM321 489q-43 -328 191 -327h122q233 0 277 327l16 123q43 328 -190 328h-123q-233 0 -276 -328zM372 1225l252 256l244 -2l184 -254h-196l-121 176l-166 -176 h-197z" />
<glyph unicode="&#xf5;" horiz-adv-x="1140" d="M151 489l17 123q66 485 469 486h122q410 -1 344 -486l-16 -123q-61 -481 -471 -481h-123q-403 0 -342 481zM321 489q-43 -328 191 -327h122q233 0 277 327l16 123q43 328 -190 328h-123q-233 0 -276 -328zM401 1349q33 31 91.5 66t127.5 35q41 0 84 -17.5t83 -37t80 -37 t87 -17.5q43 0 78 17.5t74 52.5l47 -113q-35 -31 -92.5 -63.5t-122.5 -32.5q-45 0 -88 16.5t-83 37t-80 35.5t-83 15q-49 0 -85 -18t-69 -49z" />
<glyph unicode="&#xf6;" horiz-adv-x="1140" d="M151 489l17 123q66 485 469 486h122q410 -1 344 -486l-16 -123q-61 -481 -471 -481h-123q-403 0 -342 481zM321 489q-43 -328 191 -327h122q233 0 277 327l16 123q43 328 -190 328h-123q-233 0 -276 -328zM395 1245l27 199h203l-27 -199h-203zM834 1245l26 199h203 l-27 -199h-202z" />
<glyph unicode="&#xf7;" horiz-adv-x="1107" d="M193 657l24 179h895l-25 -179h-894zM477 223l29 217h217l-29 -217h-217zM586 1040l28 217h217l-28 -217h-217z" />
<glyph unicode="&#xf8;" horiz-adv-x="1155" d="M156 4l80 105q-102 119 -70 380l16 123q66 485 469 486h123q113 0 189 -47l28 36h158l-96 -124q78 -121 65 -351l-16 -123q-61 -481 -471 -481h-123q-98 0 -170 29l-25 -33h-157zM336 489q-18 -147 18 -229l504 655q-43 25 -106 25h-123q-233 0 -277 -328zM444 174 q37 -12 82 -12h123q233 0 277 327l16 123q16 123 -6 199z" />
<glyph unicode="&#xf9;" horiz-adv-x="1140" d="M176 489l82 615h176l-82 -615q-43 -328 211 -327q166 2 281 39l118 903h179l-140 -1059q-289 -37 -458 -41q-430 0 -367 485zM389 1481h248l199 -256h-191z" />
<glyph unicode="&#xfa;" horiz-adv-x="1136" d="M172 489l82 615h176l-82 -615q-43 -328 211 -327q166 2 281 39l118 903h179l-140 -1059q-289 -37 -458 -41q-430 0 -367 485zM538 1225l265 256h245l-319 -256h-191z" />
<glyph unicode="&#xfb;" horiz-adv-x="1114" d="M180 489l82 615h176l-82 -615q-43 -328 211 -327q166 2 281 39l118 903h179l-140 -1059q-289 -37 -458 -41q-430 0 -367 485zM385 1225l252 256l244 -2l184 -254h-196l-121 176l-166 -176h-197z" />
<glyph unicode="&#xfc;" horiz-adv-x="1144" d="M180 489l82 615h176l-82 -615q-43 -328 211 -327q166 2 281 39l118 903h179l-140 -1059q-289 -37 -458 -41q-430 0 -367 485zM407 1245l27 199h203l-27 -199h-203zM846 1245l26 199h203l-27 -199h-202z" />
<glyph unicode="&#xfd;" horiz-adv-x="1081" d="M193 -395l16 131q221 20 330 264h-21q-20 0 -35 51q-197 526 -272 1053h195q39 -446 200 -893q2 -23 12 -23h11l434 916h188l-522 -1104q-182 -391 -536 -395zM497 1225l265 256h245l-319 -256h-191z" />
<glyph unicode="&#xfe;" horiz-adv-x="1249" d="M109 -485l268 2046h176l-57 -443h213q561 0 489 -540q-76 -580 -637 -580h-213l-63 -483h-176zM371 170h213q373 0 426 408q49 369 -324 368h-213z" />
<glyph unicode="&#xff;" horiz-adv-x="1087" d="M199 -395l16 131q221 20 330 264h-21q-20 0 -35 51q-197 526 -272 1053h195q39 -446 200 -893q2 -23 12 -23h11l434 916h188l-522 -1104q-182 -391 -536 -395zM405 1245l27 199h203l-27 -199h-203zM844 1245l26 199h203l-27 -199h-202z" />
<glyph unicode="&#x2c6;" horiz-adv-x="903" d="M274 1225l252 256l244 -2l184 -254h-196l-121 176l-166 -176h-197z" />
<glyph unicode="&#x2dc;" horiz-adv-x="976" d="M342 1767q33 31 91.5 66t127.5 35q41 0 84 -17.5t83 -37t80 -37t87 -17.5q43 0 78 17.5t74 52.5l47 -113q-35 -31 -92.5 -63.5t-122.5 -32.5q-45 0 -88 16.5t-83 37t-80 35.5t-83 15q-49 0 -85 -18t-69 -49z" />
<glyph unicode="&#x2000;" horiz-adv-x="945" />
<glyph unicode="&#x2001;" horiz-adv-x="1891" />
<glyph unicode="&#x2002;" horiz-adv-x="945" />
<glyph unicode="&#x2003;" horiz-adv-x="1891" />
<glyph unicode="&#x2004;" horiz-adv-x="630" />
<glyph unicode="&#x2005;" horiz-adv-x="472" />
<glyph unicode="&#x2006;" horiz-adv-x="315" />
<glyph unicode="&#x2007;" horiz-adv-x="315" />
<glyph unicode="&#x2008;" horiz-adv-x="236" />
<glyph unicode="&#x2009;" horiz-adv-x="378" />
<glyph unicode="&#x200a;" horiz-adv-x="105" />
<glyph unicode="&#x2010;" horiz-adv-x="661" d="M102 489l25 179h541l-25 -179h-541z" />
<glyph unicode="&#x2011;" horiz-adv-x="661" d="M102 489l25 179h541l-25 -179h-541z" />
<glyph unicode="&#x2012;" horiz-adv-x="661" d="M102 489l25 179h541l-25 -179h-541z" />
<glyph unicode="&#x2013;" horiz-adv-x="1271" d="M170 489l25 179h1058l-24 -179h-1059z" />
<glyph unicode="&#x2014;" horiz-adv-x="2347" d="M170 489l25 179h2134l-25 -179h-2134z" />
<glyph unicode="&#x2018;" horiz-adv-x="509" d="M305 1499h178l52 -483h-175z" />
<glyph unicode="&#x2019;" horiz-adv-x="509" d="M242 1016l178 483h178l-182 -483h-174z" />
<glyph unicode="&#x201a;" horiz-adv-x="509" d="M78 -233l178 483h178l-182 -483h-174z" />
<glyph unicode="&#x201c;" horiz-adv-x="837" d="M305 1499h178l52 -483h-175zM633 1499h178l51 -483h-174z" />
<glyph unicode="&#x201d;" horiz-adv-x="837" d="M242 1016l178 483h178l-182 -483h-174zM569 1016l179 483h178l-183 -483h-174z" />
<glyph unicode="&#x201e;" horiz-adv-x="837" d="M82 -207l178 483h178l-182 -483h-174zM410 -207l178 483h178l-182 -483h-174z" />
<glyph unicode="&#x2022;" horiz-adv-x="749" d="M209 778q8 57 35.5 106.5t68.5 85.5t92.5 57.5t106.5 21.5q57 0 103.5 -21.5t77 -57.5t46 -85t6.5 -107q-8 -55 -35.5 -104t-67.5 -85t-91 -57.5t-109 -21.5q-55 0 -101 21.5t-78 57.5t-47 85t-7 104z" />
<glyph unicode="&#x2026;" horiz-adv-x="1210" d="M109 8l22 178h178l-22 -178h-178zM519 8l22 178h178l-22 -178h-178zM928 8l22 178h178l-22 -178h-178z" />
<glyph unicode="&#x202f;" horiz-adv-x="378" />
<glyph unicode="&#x2039;" horiz-adv-x="776" d="M184 569l410 467h209l-408 -465l283 -471h-205z" />
<glyph unicode="&#x203a;" horiz-adv-x="776" d="M123 100l409 471l-284 465h209l286 -467l-413 -469h-207z" />
<glyph unicode="&#x205f;" horiz-adv-x="472" />
<glyph unicode="&#x20ac;" horiz-adv-x="1402" d="M180 553l19 145h155l8 64q6 47 15 92h-158l19 145h172q143 520 579 521q283 -8 502 -39l-21 -164q-217 25 -497 26q-274 0 -383 -344h629l-19 -145h-645q-8 -45 -14 -92q-4 -33 -6 -64h645l-19 -145h-633q8 -371 293 -371q281 4 500 27l-21 -160q-225 -31 -509 -41 q-449 0 -443 545h-168z" />
<glyph unicode="&#x2122;" horiz-adv-x="1736" d="M293 1417l14 109h621l-15 -109h-245l-97 -725h-110l96 725h-264zM854 694l104 801q4 33 39 33h125q29 0 39 -31l154 -526l24 -2l289 528q16 29 43 29h129q31 0 27 -31l-105 -801h-110l88 670h-23l-274 -494q-23 -39 -49 -39h-84q-31 0 -43 39l-150 494h-24l-88 -670h-111 z" />
<glyph unicode="&#x25fc;" horiz-adv-x="1105" d="M0 0v1106h1106v-1106h-1106z" />
</font>
</defs>
</svg>
